<?xml version="1.0" encoding="utf-8"?>
<!-- Generator: Adobe Illustrator 16.0.0, SVG Export Plug-In . SVG Version: 6.00 Build 0)  -->
<!DOCTYPE svg PUBLIC "-//W3C//DTD SVG 1.1//EN" "http://www.w3.org/Graphics/SVG/1.1/DTD/svg11.dtd">
<svg version="1.1" id="Layer_1" xmlns="http://www.w3.org/2000/svg" xmlns:xlink="http://www.w3.org/1999/xlink" x="0px" y="0px"
	 width="159px" height="35px" viewBox="0 0 159 35" enable-background="new 0 0 159 35" xml:space="preserve">
<g>
	<g>
		<path fill="#58BBD5" d="M64.621,7.839c-1.605,0-2.913-1.307-2.913-2.914c0-1.606,1.308-2.914,2.913-2.914
			c1.607,0,2.915,1.308,2.915,2.914C67.536,6.532,66.229,7.839,64.621,7.839 M64.621,3.797c-0.621,0-1.127,0.507-1.127,1.129
			c0,0.623,0.506,1.129,1.127,1.129c0.624,0,1.129-0.506,1.129-1.129C65.75,4.304,65.245,3.797,64.621,3.797"/>
		<path fill="#58BBD5" d="M64.621,8.124c-1.762,0-3.197-1.435-3.197-3.198c0-1.763,1.435-3.198,3.197-3.198
			c1.764,0,3.199,1.435,3.199,3.198C67.82,6.689,66.385,8.124,64.621,8.124z M64.621,2.297c-1.449,0-2.626,1.179-2.626,2.628
			c0,1.45,1.178,2.629,2.626,2.629c1.451,0,2.63-1.179,2.63-2.629C67.251,3.477,66.072,2.297,64.621,2.297z M64.621,6.339
			c-0.778,0-1.412-0.634-1.412-1.413c0-0.779,0.634-1.413,1.412-1.413c0.78,0,1.415,0.634,1.415,1.413
			C66.036,5.705,65.401,6.339,64.621,6.339z M64.621,4.082c-0.465,0-0.843,0.378-0.843,0.844c0,0.466,0.378,0.845,0.843,0.845
			c0.466,0,0.845-0.379,0.845-0.845C65.466,4.46,65.087,4.082,64.621,4.082z"/>
	</g>
	<g>
		<path fill="#58BBD5" d="M56.26,2.012c-0.64,0-1.159,0.521-1.159,1.16v20.695c0,0.952-0.778,1.729-1.737,1.729
			c-0.503,0-0.98-0.218-1.297-0.582L35.187,3.359l-0.071-0.082c-0.796-0.827-1.809-1.265-2.928-1.265
			c-2.236,0-4.056,1.808-4.056,4.03v15.236c0,2.98-1.478,4.31-4.796,4.31h-9.428c-5.747,0-10.424-4.676-10.424-10.425
			c0-5.687,4.603-10.446,10.449-10.833l4.516,0.001c0.639,0,1.161-0.52,1.161-1.159c0-0.639-0.521-1.16-1.161-1.16l-4.553-0.001
			l-0.061,0.003C6.732,2.469,1.168,8.246,1.168,15.163c0,7.026,5.715,12.744,12.74,12.744h9.428c2.658,0,7.115-0.861,7.115-6.629
			V6.042c0-0.943,0.778-1.711,1.737-1.711c0.471,0,0.868,0.168,1.217,0.513L50.248,26.45l0.034,0.041
			c0.771,0.904,1.896,1.424,3.083,1.424c2.236,0,4.053-1.817,4.053-4.048V3.172C57.417,2.533,56.898,2.012,56.26,2.012"/>
		<path fill="#58BBD5" d="M53.364,28.199c-1.272,0-2.474-0.555-3.3-1.523l-0.038-0.046L33.182,5.018
			c-0.274-0.266-0.598-0.402-0.994-0.402c-0.8,0-1.451,0.641-1.451,1.426v15.236c0,6.015-4.638,6.913-7.401,6.913h-9.428
			c-7.182,0-13.024-5.844-13.024-13.028c0-7.068,5.681-12.968,12.935-13.432l0.068-0.003h4.563c0.796,0,1.445,0.647,1.445,1.445
			c0,0.795-0.649,1.443-1.445,1.443h-4.516C8.244,4.993,3.771,9.625,3.771,15.163c0,5.592,4.548,10.141,10.138,10.141h9.428
			c3.162,0,4.512-1.205,4.512-4.025V6.042c0-2.378,1.946-4.314,4.34-4.314c1.198,0,2.284,0.468,3.132,1.351l0.082,0.095
			l16.89,21.666c0.252,0.29,0.658,0.472,1.072,0.472c0.8,0,1.451-0.649,1.451-1.444V3.172c0-0.796,0.646-1.444,1.445-1.444
			c0.795,0,1.444,0.647,1.444,1.444v20.695C57.704,26.255,55.755,28.199,53.364,28.199z M32.188,4.046
			c0.549,0,1.011,0.194,1.417,0.594l16.898,21.67c0.711,0.836,1.756,1.318,2.861,1.318c2.078,0,3.769-1.688,3.769-3.762V3.172
			c0-0.482-0.392-0.875-0.874-0.875c-0.482,0-0.875,0.392-0.875,0.875v20.695c0,1.109-0.908,2.013-2.021,2.013
			c-0.586,0-1.137-0.247-1.511-0.679L34.963,3.534l-0.063-0.07c-0.731-0.76-1.672-1.167-2.713-1.167c-2.08,0-3.769,1.68-3.769,3.745
			v15.236c0,3.134-1.616,4.594-5.083,4.594h-9.428c-5.904,0-10.708-4.804-10.708-10.709c0-5.836,4.706-10.719,10.713-11.117h4.536
			c0.482,0,0.875-0.392,0.875-0.874c0-0.482-0.393-0.875-0.875-0.875h-4.553l-0.051,0.002C6.899,2.744,1.452,8.395,1.452,15.163
			c0,6.87,5.588,12.46,12.456,12.46h9.428c2.55,0,6.831-0.825,6.831-6.345V6.042C30.167,4.942,31.073,4.046,32.188,4.046z"/>
	</g>
	<g>
		<path fill="#929497" d="M157.719,13.281c-0.373,0-0.675,0.301-0.675,0.673v11.311c0,0.489-0.402,0.89-0.895,0.89
			c-0.507,0-0.719-0.212-0.847-0.395l-8.932-11.522c-0.442-0.625-1.115-0.957-1.942-0.957c-1.237,0-2.242,1.003-2.242,2.236v11.312
			c0,0.369,0.302,0.672,0.675,0.672c0.37,0,0.674-0.303,0.674-0.672V15.517c0-0.491,0.4-0.89,0.894-0.89
			c0.508,0,0.719,0.211,0.847,0.395l8.932,11.523c0.444,0.624,1.113,0.956,1.942,0.956c1.235,0,2.24-1.004,2.24-2.236V13.954
			C158.39,13.582,158.09,13.281,157.719,13.281"/>
		<path fill="#929496" d="M156.149,27.785c-0.925,0-1.676-0.372-2.175-1.078l-8.922-11.51c-0.11-0.154-0.251-0.286-0.624-0.286
			c-0.337,0-0.609,0.272-0.609,0.606v11.312c0,0.527-0.431,0.956-0.958,0.956c-0.528,0-0.959-0.429-0.959-0.956V15.517
			c0-1.391,1.133-2.521,2.526-2.521c0.924,0,1.676,0.373,2.174,1.078l8.924,11.513c0.076,0.106,0.198,0.284,0.623,0.284
			c0.336,0,0.61-0.272,0.61-0.605V13.954c0-0.528,0.429-0.958,0.959-0.958c0.526,0,0.955,0.43,0.955,0.958v11.311
			C158.674,26.654,157.541,27.785,156.149,27.785z M144.429,14.342c0.647,0,0.926,0.296,1.08,0.519l8.924,11.51
			c0.395,0.557,0.984,0.847,1.717,0.847c1.078,0,1.956-0.877,1.956-1.952V13.954c0-0.215-0.174-0.389-0.387-0.389
			c-0.217,0-0.391,0.174-0.391,0.389v11.311c0,0.646-0.529,1.174-1.179,1.174c-0.646,0-0.927-0.294-1.081-0.516l-8.923-11.51
			c-0.396-0.558-0.986-0.848-1.717-0.848c-1.08,0-1.956,0.876-1.956,1.952v11.312c0,0.213,0.174,0.388,0.389,0.388
			c0.213,0,0.388-0.175,0.388-0.388V15.517C143.249,14.869,143.777,14.342,144.429,14.342z"/>
	</g>
	<g>
		<path fill="#231F20" d="M132.856,34.021c-0.182,0-0.331-0.146-0.331-0.329c0-0.182,0.149-0.329,0.331-0.329
			c0.673,0,1.356-0.117,1.976-0.339c0.62-0.222,1.123-0.531,1.463-0.896c0.68-0.729,0.68-1.635,0.68-3.616V17.934
			c0-0.99,0-1.925-0.68-2.653c-0.389-0.42-0.924-0.771-1.463-0.965c-0.686-0.246-1.368-0.375-1.976-0.375
			c-0.629,0-1.313,0.125-1.976,0.364c-0.695,0.249-1.219,0.721-1.469,0.98c-0.435,0.453-0.674,1.434-0.674,2.765v4.209
			c0,1.501,0,2.404,0.678,3.134c0.389,0.417,0.92,0.767,1.465,0.962c0.665,0.237,1.349,0.365,1.976,0.365
			c0.64,0,1.323-0.124,1.976-0.359c0.17-0.06,0.359,0.028,0.422,0.201c0.061,0.17-0.027,0.359-0.2,0.421
			c-0.723,0.259-1.483,0.396-2.197,0.396c-0.703,0-1.464-0.14-2.199-0.402c-0.639-0.229-1.267-0.644-1.725-1.135
			c-0.854-0.92-0.854-2.037-0.854-3.583v-4.209c0-1.064,0.151-2.485,0.858-3.222c0.29-0.301,0.899-0.85,1.721-1.144
			c0.735-0.264,1.496-0.403,2.199-0.403c0.692,0,1.431,0.139,2.197,0.415c0.637,0.227,1.265,0.642,1.725,1.136
			c0.854,0.919,0.854,2.028,0.854,3.103v10.579c0,2.027,0,3.146-0.854,4.064c-0.411,0.441-1.007,0.812-1.725,1.068
			C134.366,33.893,133.604,34.021,132.856,34.021"/>
		<path fill="#221F1F" d="M132.856,34.309c-0.339,0-0.615-0.276-0.615-0.616c0-0.339,0.276-0.613,0.615-0.613
			c0.642,0,1.292-0.111,1.88-0.323c0.576-0.206,1.043-0.49,1.351-0.822c0.602-0.646,0.602-1.516,0.602-3.421V17.934
			c0-0.972,0-1.812-0.602-2.459c-0.36-0.388-0.853-0.713-1.351-0.891c-0.654-0.235-1.304-0.359-1.88-0.359
			c-0.596,0-1.246,0.12-1.881,0.348c-0.642,0.229-1.126,0.668-1.356,0.909c-0.379,0.393-0.597,1.328-0.597,2.567v4.209
			c0,1.479,0,2.293,0.603,2.939c0.355,0.385,0.849,0.708,1.351,0.888c0.637,0.228,1.285,0.35,1.881,0.35
			c0.607,0,1.259-0.12,1.88-0.341c0.31-0.111,0.674,0.061,0.784,0.37c0.057,0.154,0.046,0.322-0.021,0.469
			c-0.07,0.149-0.194,0.262-0.349,0.317c-0.753,0.271-1.548,0.412-2.294,0.412c-0.736,0-1.528-0.146-2.295-0.42
			c-0.68-0.243-1.349-0.682-1.837-1.208c-0.931-0.999-0.931-2.226-0.931-3.776v-4.209c0-1.116,0.163-2.614,0.938-3.42
			c0.307-0.318,0.952-0.899,1.829-1.214c0.765-0.274,1.559-0.419,2.295-0.419c0.726,0,1.496,0.145,2.294,0.431
			c0.678,0.243,1.346,0.683,1.838,1.21c0.929,1.002,0.929,2.221,0.929,3.297v10.579c0,2.029,0,3.257-0.931,4.259
			c-0.44,0.475-1.076,0.87-1.836,1.143C134.431,34.171,133.637,34.309,132.856,34.309z M132.856,13.656
			c0.64,0,1.356,0.135,2.072,0.392c0.58,0.208,1.154,0.587,1.575,1.039c0.755,0.811,0.755,1.846,0.755,2.847v10.579
			c0,1.997,0,2.998-0.757,3.81c-0.368,0.398-0.913,0.733-1.573,0.971c-0.651,0.231-1.366,0.354-2.072,0.354
			c-0.025,0-0.045,0.02-0.045,0.045s0.02,0.045,0.045,0.045c0.716,0,1.442-0.123,2.102-0.36c0.674-0.241,1.232-0.586,1.611-0.993
			c0.779-0.837,0.779-1.852,0.779-3.871V17.934c0-1.066,0-2.072-0.779-2.909c-0.428-0.462-1.016-0.85-1.611-1.062
			c-0.735-0.264-1.442-0.398-2.102-0.398c-0.672,0-1.399,0.133-2.103,0.386c-0.768,0.274-1.34,0.79-1.612,1.073
			c-0.642,0.67-0.777,2.014-0.777,3.025v4.209c0,1.537,0,2.552,0.777,3.391c0.428,0.459,1.015,0.845,1.612,1.059
			c0.705,0.253,1.431,0.387,2.103,0.387c0.683,0,1.409-0.132,2.102-0.381c0.02-0.008,0.035-0.037,0.027-0.057
			c-0.008-0.022-0.025-0.03-0.043-0.03c-0.698,0.247-1.413,0.377-2.086,0.377c-0.661,0-1.376-0.132-2.073-0.381
			c-0.584-0.211-1.158-0.588-1.576-1.036c-0.755-0.812-0.755-1.812-0.755-3.328v-4.209c0-0.994,0.131-2.314,0.755-2.962
			c0.267-0.276,0.825-0.782,1.576-1.051C131.479,13.787,132.195,13.656,132.856,13.656z"/>
	</g>
	<g>
		<path fill="#231F20" d="M106.1,27.351c-0.182,0-0.329-0.148-0.329-0.33V13.61c0-0.182,0.147-0.329,0.329-0.329
			c0.183,0,0.329,0.147,0.329,0.329v13.411C106.429,27.202,106.282,27.351,106.1,27.351"/>
		<path fill="#221F1F" d="M106.1,27.635c-0.339,0-0.613-0.274-0.613-0.614V13.61c0-0.338,0.274-0.613,0.613-0.613
			s0.615,0.275,0.615,0.613v13.411C106.715,27.36,106.438,27.635,106.1,27.635z M106.1,13.566c-0.023,0-0.044,0.02-0.044,0.044
			v13.411c0,0.05,0.089,0.05,0.089,0V13.61C106.145,13.585,106.125,13.566,106.1,13.566z"/>
	</g>
	<g>
		<path fill="#231F20" d="M123.392,27.473c-0.768,0-1.362-0.296-1.765-0.876l-8.651-12.063c-0.28-0.401-0.681-0.594-1.229-0.594
			c-0.738,0-1.342,0.603-1.342,1.345v11.858c0,0.182-0.146,0.33-0.33,0.33c-0.182,0-0.331-0.148-0.331-0.33V15.285
			c0-1.105,0.899-2.004,2.003-2.004c0.771,0,1.364,0.294,1.769,0.875l8.651,12.062c0.278,0.401,0.679,0.597,1.226,0.597
			c0.742,0,1.345-0.604,1.345-1.346V13.61c0-0.181,0.148-0.329,0.329-0.329c0.182,0,0.331,0.148,0.331,0.329v11.858
			C125.396,26.574,124.497,27.473,123.392,27.473"/>
		<path fill="#221F1F" d="M123.392,27.757c-0.868,0-1.541-0.336-1.999-0.997l-8.649-12.059c-0.226-0.325-0.541-0.476-0.997-0.476
			c-0.582,0-1.058,0.475-1.058,1.06v11.858c0,0.338-0.276,0.614-0.614,0.614c-0.339,0-0.615-0.276-0.615-0.614V15.285
			c0-1.262,1.027-2.288,2.287-2.288c0.869,0,1.543,0.335,2.002,0.997l8.649,12.059c0.227,0.326,0.541,0.478,0.994,0.478
			c0.584,0,1.061-0.478,1.061-1.062V13.61c0-0.338,0.276-0.613,0.613-0.613c0.34,0,0.615,0.275,0.615,0.613v11.858
			C125.681,26.73,124.653,27.757,123.392,27.757z M111.746,13.656c0.642,0,1.132,0.24,1.463,0.717l8.649,12.06
			c0.354,0.51,0.853,0.754,1.533,0.754c0.948,0,1.719-0.77,1.719-1.719V13.61c0-0.05-0.09-0.05-0.09,0v11.858
			c0,0.9-0.729,1.63-1.629,1.63c-0.64,0-1.129-0.241-1.46-0.718l-8.648-12.059c-0.354-0.51-0.856-0.755-1.537-0.755
			c-0.945,0-1.717,0.77-1.717,1.719v11.858c0,0.05,0.089,0.05,0.089,0V15.285C110.118,14.386,110.851,13.656,111.746,13.656z"/>
	</g>
	<g>
		<path fill="#231F20" d="M102.886,13.94h-8.97c-0.183,0-0.329-0.148-0.329-0.33s0.146-0.329,0.329-0.329h8.97
			c0.182,0,0.331,0.147,0.331,0.329S103.067,13.94,102.886,13.94"/>
		<path fill="#221F1F" d="M102.886,14.225h-8.97c-0.339,0-0.613-0.275-0.613-0.615c0-0.338,0.274-0.614,0.613-0.614h8.97
			c0.339,0,0.615,0.276,0.615,0.614C103.501,13.949,103.225,14.225,102.886,14.225z M93.916,13.565
			c-0.023,0-0.045,0.021-0.045,0.045c0,0.025,0.021,0.046,0.045,0.046h8.97c0.025,0,0.045-0.021,0.045-0.046
			c0-0.024-0.02-0.045-0.045-0.045H93.916z"/>
	</g>
	<g>
		<path fill="#231F20" d="M98.403,27.351c-0.184,0-0.332-0.148-0.332-0.33V15.27c0-1.097,0.78-1.989,1.739-1.989
			c0.18,0,0.329,0.148,0.329,0.329c0,0.182-0.149,0.33-0.329,0.33c-0.595,0-1.078,0.596-1.078,1.33v11.751
			C98.732,27.202,98.583,27.351,98.403,27.351"/>
		<path fill="#221F1F" d="M98.403,27.635c-0.34,0-0.616-0.274-0.616-0.614V15.27c0-1.254,0.908-2.273,2.023-2.273
			c0.337,0,0.613,0.275,0.613,0.613c0,0.339-0.276,0.615-0.613,0.615c-0.438,0-0.794,0.468-0.794,1.045v11.751
			C99.017,27.36,98.74,27.635,98.403,27.635z M99.811,13.566c-0.802,0-1.455,0.763-1.455,1.704v11.751c0,0.05,0.093,0.05,0.093,0
			V15.27c0-0.89,0.608-1.614,1.362-1.614c0.023,0,0.045-0.021,0.045-0.046C99.855,13.585,99.834,13.566,99.811,13.566z"/>
	</g>
	<g>
		<path fill="#231F20" d="M83.731,27.515c-0.137,0-0.267-0.088-0.312-0.226l-4.169-12.446c-0.181-0.534-0.568-0.717-0.869-0.718
			c-0.372,0.004-0.688,0.277-0.825,0.712l-3.936,12.446c-0.055,0.172-0.239,0.269-0.414,0.216c-0.172-0.056-0.269-0.241-0.214-0.415
			l3.934-12.445c0.226-0.717,0.78-1.167,1.448-1.174c0.674-0.014,1.256,0.451,1.5,1.167l4.169,12.448
			c0.06,0.172-0.035,0.357-0.207,0.417C83.803,27.509,83.767,27.515,83.731,27.515"/>
		<path fill="#221F1F" d="M83.731,27.799c-0.263,0-0.497-0.168-0.582-0.419l-4.167-12.446c-0.165-0.485-0.502-0.525-0.602-0.525
			c-0.239,0.002-0.453,0.199-0.55,0.514L73.894,27.37c-0.1,0.315-0.453,0.499-0.772,0.399c-0.155-0.05-0.282-0.157-0.359-0.303
			c-0.076-0.146-0.09-0.312-0.042-0.468l3.934-12.446c0.267-0.838,0.923-1.364,1.717-1.373l0,0c0.81,0,1.494,0.535,1.774,1.361
			l4.169,12.448c0.108,0.321-0.066,0.669-0.388,0.778C83.863,27.787,83.799,27.799,83.731,27.799z M78.378,13.839
			c0.406,0.002,0.916,0.243,1.143,0.912l4.169,12.445c0.008,0.028,0.02,0.044,0.059,0.03c0.021-0.008,0.034-0.034,0.025-0.058
			l-4.167-12.447c-0.202-0.591-0.674-0.973-1.203-0.973c-0.564,0.005-1.018,0.379-1.204,0.975l-3.936,12.445
			c-0.006,0.021,0.01,0.052,0.029,0.058c0.028,0.002,0.051-0.008,0.057-0.03l3.936-12.445
			C77.461,14.194,77.881,13.844,78.378,13.839z"/>
	</g>
	<g>
		<path fill="#231F20" d="M85.241,27.351c-0.183,0-0.331-0.148-0.331-0.33s0.148-0.331,0.331-0.331h4.755
			c0.018,0,1.366,0,2.248-0.874c0.516-0.512,0.778-1.234,0.778-2.147c0-0.915-0.265-1.639-0.782-2.15
			c-0.888-0.878-2.225-0.871-2.24-0.872h-2.187c-0.038-0.001-0.928-0.013-1.826-0.465c-0.849-0.426-1.861-1.332-1.861-3.218
			c0-3.613,3.571-3.682,3.606-3.682h4.337c0.183,0,0.331,0.147,0.331,0.329s-0.148,0.33-0.331,0.33h-4.335
			c-0.118,0.001-2.948,0.07-2.948,3.023c0,2.965,2.907,3.021,3.029,3.023h2.181c0.063,0.001,1.627-0.006,2.707,1.061
			c0.648,0.643,0.979,1.523,0.979,2.621c0,1.097-0.33,1.979-0.979,2.62c-1.08,1.068-2.647,1.061-2.711,1.063H85.241z"/>
		<path fill="#221F1F" d="M85.241,27.635L85.241,27.635c-0.339,0-0.615-0.274-0.615-0.614c0-0.339,0.276-0.615,0.615-0.615h4.755
			c0.129-0.002,1.289-0.042,2.046-0.792c0.461-0.456,0.694-1.111,0.694-1.945c0-0.836-0.233-1.492-0.696-1.949
			c-0.757-0.748-1.911-0.787-2.04-0.789h-2.187c-0.103-0.001-1.019-0.022-1.954-0.494c-0.92-0.462-2.018-1.439-2.018-3.473
			c0-3.882,3.85-3.966,3.887-3.966h4.341c0.339,0,0.615,0.275,0.615,0.613c0,0.339-0.276,0.615-0.615,0.615h-4.335
			c-0.106,0.002-2.664,0.057-2.664,2.738c0,2.637,2.467,2.735,2.748,2.738h2.178c0.306,0.005,1.828,0.078,2.906,1.145
			c0.706,0.695,1.065,1.646,1.065,2.822c0,1.178-0.359,2.125-1.065,2.823c-1.076,1.064-2.604,1.14-2.898,1.144H85.241z M90,20.36
			c0.257,0.004,1.544,0.067,2.44,0.953c0.574,0.568,0.866,1.36,0.866,2.354c0,0.99-0.29,1.781-0.862,2.35
			c-0.896,0.889-2.191,0.952-2.44,0.956l-4.763,0.002c-0.025,0-0.047,0.02-0.047,0.045s0.021,0.046,0.047,0.046l4.751-0.002
			c0.261-0.003,1.588-0.065,2.511-0.979c0.594-0.586,0.895-1.399,0.895-2.417s-0.301-1.832-0.895-2.419
			c-0.923-0.911-2.246-0.975-2.503-0.979h-2.185c-0.137-0.002-3.313-0.067-3.313-3.308c0-2.591,2.113-3.296,3.229-3.307h4.339
			c0.025,0,0.047-0.021,0.047-0.046c0-0.024-0.021-0.044-0.047-0.044h-4.337c-0.134,0.002-3.32,0.092-3.32,3.397
			c0,1.741,0.927,2.573,1.703,2.964c0.837,0.421,1.666,0.434,1.7,0.434H90z"/>
	</g>
	<g>
		<path fill="#231F20" d="M69.107,27.332c-3.811,0-6.909-3.1-6.909-6.909c0-3.758,3.024-6.894,6.89-7.142h2.607
			c0.169,0,0.308,0.138,0.308,0.307s-0.139,0.307-0.308,0.307h-2.574c-3.55,0.233-6.311,3.101-6.311,6.529
			c0,3.472,2.826,6.296,6.297,6.296h2.593c0.165,0,0.302,0.138,0.302,0.306c0,0.17-0.137,0.308-0.302,0.308H69.107z"/>
		<path fill="#221F1F" d="M71.701,27.616h-2.593c-3.967,0-7.193-3.227-7.193-7.193c0-3.907,3.142-7.169,7.154-7.426l2.626-0.001
			c0.327,0,0.592,0.266,0.592,0.592c0,0.325-0.265,0.591-0.592,0.591h-2.574c-3.371,0.223-6.025,2.965-6.025,6.245
			c0,3.315,2.697,6.012,6.011,6.012l2.593-0.002c0.323,0,0.586,0.267,0.586,0.592C72.287,27.353,72.024,27.616,71.701,27.616z
			 M71.695,13.565l-2.607,0.001c-3.696,0.236-6.605,3.249-6.605,6.857c0,3.652,2.972,6.623,6.625,6.623h2.593
			c0.006,0,0.016-0.008,0.016-0.021l-2.609-0.021c-3.63,0-6.582-2.951-6.582-6.58c0-3.578,2.889-6.57,6.578-6.813l2.591-0.001
			V13.565z"/>
	</g>
</g>
</svg>
